<svg id="svg" version="1.1" xmlns="http://www.w3.org/2000/svg" xmlns:xlink="http://www.w3.org/1999/xlink" width="400" height="400" viewBox="0, 0, 400,400"><g id="svgg"><path id="path0" d="M213.079 174.799 C 200.216 176.272,192.395 184.286,189.385 199.080 C 186.523 213.146,192.471 220.345,206.954 220.345 C 212.473 220.345,222.153 218.067,224.139 216.300 C 224.565 215.921,227.794 202.967,227.773 201.723 C 227.768 201.468,226.337 201.414,221.066 201.467 L 214.364 201.536 213.674 204.369 C 212.478 209.282,210.976 210.745,207.643 210.245 C 204.714 209.806,204.706 209.310,207.453 197.478 C 210.168 185.782,210.369 185.347,213.304 184.799 C 216.951 184.117,217.975 185.640,216.944 190.217 L 216.325 192.970 223.109 192.902 L 229.893 192.834 231.504 185.925 C 232.390 182.124,233.121 178.933,233.128 178.834 C 233.179 178.140,227.378 175.846,223.913 175.188 C 221.273 174.687,215.777 174.490,213.079 174.799 M301.216 174.813 C 291.483 175.738,285.574 180.273,283.676 188.275 C 281.899 195.770,284.816 199.870,294.498 203.484 C 299.050 205.184,300.008 206.118,298.989 207.864 C 297.505 210.404,292.355 209.875,292.411 207.188 L 292.436 206.014 286.257 206.014 L 280.079 206.014 278.886 211.196 C 278.230 214.047,277.660 216.609,277.618 216.891 C 277.473 217.877,283.639 219.517,289.699 220.103 C 306.417 221.721,317.209 214.689,317.210 202.175 C 317.211 196.551,315.115 194.415,306.280 191.033 C 301.113 189.055,300.280 188.193,301.814 186.409 C 303.379 184.590,308.202 185.649,307.805 187.724 L 307.685 188.356 313.343 188.356 L 319.002 188.355 320.132 183.378 C 321.417 177.716,321.467 178.037,319.124 176.985 C 314.752 175.023,307.831 174.184,301.216 174.813 M50.672 175.394 C 50.672 175.443,50.211 177.461,49.648 179.879 C 49.085 182.297,48.624 184.322,48.624 184.381 C 48.624 184.440,49.114 184.523,49.712 184.566 L 50.800 184.645 51.868 202.047 C 52.455 211.619,52.944 219.479,52.955 219.514 C 52.966 219.549,57.092 219.575,62.124 219.572 L 71.273 219.565 80.388 202.105 L 89.504 184.645 90.646 184.569 L 91.788 184.492 92.748 180.346 C 93.275 178.065,93.763 175.998,93.832 175.752 C 93.949 175.331,93.382 175.304,84.470 175.304 C 79.253 175.304,74.984 175.358,74.984 175.425 C 74.984 175.492,74.523 177.524,73.960 179.942 C 73.397 182.360,72.937 184.378,72.937 184.427 C 72.937 184.477,73.570 184.517,74.344 184.517 C 75.118 184.517,75.752 184.586,75.752 184.671 C 75.752 184.802,68.754 200.947,67.805 203.007 C 66.831 205.119,66.710 201.874,67.268 188.612 L 67.434 184.645 68.906 184.568 C 69.715 184.526,70.379 184.411,70.381 184.312 C 70.383 184.170,71.367 179.843,72.299 175.880 L 72.435 175.304 61.553 175.304 C 55.568 175.304,50.672 175.344,50.672 175.394 M108.951 177.415 C 108.326 178.576,104.315 186.460,100.037 194.933 L 92.258 210.340 91.113 210.416 L 89.967 210.493 88.914 215.035 L 87.860 219.578 97.540 219.578 L 107.220 219.578 107.355 219.002 C 108.289 215.028,109.272 210.711,109.274 210.568 C 109.276 210.469,108.533 210.354,107.623 210.312 L 105.969 210.237 106.928 208.061 L 107.887 205.886 111.791 205.815 L 115.695 205.745 115.621 207.991 L 115.547 210.237 113.820 210.312 C 112.869 210.354,112.091 210.469,112.089 210.568 C 112.087 210.711,111.105 215.028,110.170 219.002 L 110.035 219.578 121.123 219.578 L 132.210 219.578 133.174 215.419 C 133.704 213.132,134.195 211.059,134.265 210.813 C 134.372 210.433,134.214 210.365,133.223 210.365 C 132.117 210.365,132.054 210.326,132.057 209.661 C 132.063 208.201,130.758 178.433,130.621 176.903 L 130.477 175.304 120.282 175.304 L 110.086 175.304 108.951 177.415 M147.025 175.604 C 146.956 175.791,146.459 177.844,145.923 180.166 L 144.946 184.389 146.306 184.466 C 147.053 184.508,147.665 184.627,147.665 184.730 C 147.665 184.939,142.089 209.206,141.877 209.917 C 141.772 210.271,141.457 210.365,140.371 210.365 C 139.287 210.365,138.969 210.459,138.860 210.813 C 138.631 211.555,136.916 219.079,136.916 219.340 C 136.916 219.491,141.168 219.558,148.084 219.516 L 159.253 219.450 160.227 215.355 C 161.521 209.915,161.595 210.365,159.407 210.365 C 157.644 210.365,157.591 210.346,157.737 209.789 C 157.821 209.472,158.319 207.327,158.845 205.021 L 159.801 200.830 161.689 200.989 C 166.408 201.388,166.456 202.630,162.373 218.874 L 162.197 219.578 171.177 219.578 L 180.157 219.578 180.292 219.002 C 181.251 214.921,182.208 210.709,182.211 210.557 C 182.212 210.451,181.638 210.365,180.934 210.365 C 180.230 210.365,179.655 210.317,179.655 210.259 C 179.655 210.202,179.942 208.936,180.294 207.446 C 181.466 202.487,180.673 200.022,177.728 199.470 C 176.454 199.231,176.627 198.712,178.246 197.920 C 184.682 194.768,187.943 182.841,183.565 178.464 C 182.495 177.394,180.656 176.450,178.572 175.902 C 176.372 175.323,147.233 175.048,147.025 175.604 M244.906 185.986 C 241.923 191.864,237.919 199.754,236.009 203.519 L 232.536 210.365 231.449 210.365 C 230.636 210.365,230.326 210.478,230.223 210.813 C 229.994 211.555,228.279 219.079,228.279 219.341 C 228.279 219.491,231.954 219.558,237.917 219.517 L 247.556 219.450 248.533 215.227 C 249.766 209.898,249.818 210.365,247.985 210.365 C 246.184 210.365,246.211 210.461,247.306 207.894 L 248.162 205.886 252.200 205.815 L 256.237 205.745 256.081 206.327 C 255.995 206.648,255.924 207.687,255.922 208.637 L 255.918 210.365 254.176 210.365 L 252.433 210.365 251.730 213.500 C 251.344 215.224,250.871 217.297,250.681 218.106 L 250.334 219.578 261.421 219.578 L 272.509 219.578 273.400 215.803 C 274.831 209.745,274.815 210.409,273.529 210.316 L 272.425 210.237 272.344 208.317 C 272.299 207.262,271.954 199.431,271.576 190.915 L 270.889 175.432 260.610 175.365 L 250.331 175.298 244.906 185.986 M168.509 185.124 C 170.244 186.262,168.716 192.512,166.436 193.601 C 165.565 194.017,161.484 194.154,161.484 193.768 C 161.484 193.307,163.302 185.637,163.549 185.057 C 163.861 184.324,167.360 184.372,168.509 185.124 M116.037 193.922 C 115.941 196.983,115.835 199.521,115.802 199.561 C 115.769 199.602,114.596 199.602,113.195 199.561 L 110.648 199.488 113.079 193.922 C 114.549 190.554,115.648 188.356,115.861 188.356 C 116.153 188.356,116.183 189.289,116.037 193.922 M256.429 190.723 C 256.428 192.025,256.353 194.559,256.261 196.353 L 256.095 199.616 253.575 199.616 C 252.190 199.616,251.056 199.532,251.056 199.429 C 251.056 198.850,255.844 188.365,256.110 188.361 C 256.343 188.357,256.430 188.997,256.429 190.723 M38.575 226.935 C 37.949 228.026,37.302 229.178,37.136 229.495 L 36.834 230.070 148.783 230.070 L 260.732 230.070 261.556 228.599 C 262.010 227.790,262.665 226.638,263.013 226.040 L 263.644 224.952 151.678 224.952 L 39.712 224.952 38.575 226.935 M265.808 225.528 C 265.018 226.796,263.340 229.785,263.340 229.923 C 263.340 230.004,265.974 230.070,269.194 230.070 L 275.048 230.070 276.400 227.703 C 277.143 226.401,277.797 225.250,277.854 225.144 C 278.165 224.565,266.169 224.947,265.808 225.528 M280.210 226.807 C 279.624 227.828,278.986 228.918,278.792 229.230 C 278.598 229.541,278.439 229.858,278.439 229.933 C 278.439 230.009,280.547 230.070,283.122 230.070 L 287.806 230.070 288.926 228.087 C 289.542 226.996,290.211 225.845,290.414 225.528 L 290.782 224.952 286.029 224.952 L 281.277 224.952 280.210 226.807 M293.774 226.807 C 293.188 227.828,292.549 228.918,292.355 229.230 C 292.161 229.541,292.003 229.861,292.003 229.940 C 292.003 230.019,293.685 230.052,295.742 230.013 L 299.481 229.942 300.860 227.556 C 301.619 226.243,302.239 225.120,302.239 225.061 C 302.239 225.001,300.574 224.952,298.540 224.952 L 294.840 224.952 293.774 226.807 M305.775 227.514 L 304.319 230.070 306.198 230.070 L 308.077 230.070 308.901 228.599 C 309.355 227.790,310.010 226.638,310.358 226.040 L 310.989 224.952 309.109 224.955 L 307.230 224.957 305.775 227.514 M315.795 226.424 C 315.341 227.233,314.686 228.385,314.339 228.983 L 313.707 230.070 314.603 230.070 C 315.388 230.070,318.362 226.110,318.362 225.066 C 318.362 224.152,316.522 225.126,315.795 226.424 " stroke="none" fill="#fb1313" fill-rule="evenodd"></path><path id="path1" d="M159.821 155.854 L 146.003 169.674 160.334 169.674 L 174.666 169.674 188.484 155.854 L 202.301 142.035 187.970 142.035 L 173.639 142.035 159.821 155.854 M217.402 155.854 L 203.585 169.674 217.916 169.674 L 232.247 169.674 246.065 155.854 L 259.883 142.035 245.552 142.035 L 231.220 142.035 217.402 155.854 M274.984 155.854 L 261.166 169.674 275.498 169.674 L 289.829 169.674 303.647 155.854 L 317.465 142.035 303.133 142.035 L 288.802 142.035 274.984 155.854 M332.605 155.848 L 318.746 169.662 332.661 169.668 C 345.098 169.673,346.541 169.715,346.252 170.064 C 346.074 170.278,346.007 170.533,346.103 170.629 C 346.200 170.725,352.751 164.331,360.663 156.419 L 375.047 142.035 360.756 142.035 L 346.465 142.035 332.605 155.848 M342.002 175.368 C 338.021 179.381,320.409 198.840,320.409 199.225 C 320.409 199.300,326.312 199.360,333.526 199.360 L 346.643 199.360 360.972 185.029 L 375.302 170.697 360.969 170.697 L 346.636 170.697 342.002 175.368 " stroke="none" fill="#fafafa" fill-rule="evenodd"></path><path id="path2" d="M0.000 200.000 L 0.000 400.000 200.000 400.000 L 400.000 400.000 400.000 200.000 L 400.000 0.000 200.000 0.000 L 0.000 0.000 0.000 200.000 M188.868 155.726 L 174.922 169.674 160.462 169.674 L 146.003 169.674 159.949 155.726 L 173.895 141.779 188.354 141.779 L 202.813 141.779 188.868 155.726 M246.449 155.726 L 232.503 169.674 218.044 169.674 L 203.585 169.674 217.530 155.726 L 231.476 141.779 245.936 141.779 L 260.395 141.779 246.449 155.726 M304.031 155.726 L 290.085 169.674 275.626 169.674 L 261.166 169.674 275.112 155.726 L 289.058 141.779 303.517 141.779 L 317.976 141.779 304.031 155.726 M361.228 156.110 L 346.899 170.441 361.165 170.441 C 369.012 170.441,375.432 170.529,375.432 170.636 C 375.432 170.744,368.952 177.308,361.031 185.224 L 346.630 199.616 333.392 199.616 C 326.111 199.616,320.154 199.523,320.154 199.409 C 320.154 199.028,337.885 179.326,342.135 174.984 C 344.443 172.626,346.177 170.697,345.987 170.697 C 345.720 170.697,345.711 170.629,345.950 170.390 C 346.119 170.221,346.257 169.991,346.257 169.878 C 346.257 169.766,340.068 169.674,332.502 169.674 L 318.748 169.674 332.694 155.726 L 346.639 141.779 361.099 141.779 L 375.558 141.779 361.228 156.110 M224.568 175.171 C 228.426 176.049,232.707 177.868,233.056 178.777 C 233.133 178.977,232.472 182.250,231.587 186.051 L 229.980 192.962 223.115 192.962 C 219.340 192.962,216.251 192.909,216.251 192.844 C 216.251 192.779,216.481 191.738,216.763 190.531 C 217.792 186.115,217.228 184.773,214.340 184.773 C 210.620 184.773,210.405 185.189,207.427 198.123 C 204.793 209.563,204.827 209.981,208.404 209.981 C 211.527 209.981,212.509 208.908,213.572 204.337 L 214.253 201.408 221.166 201.408 L 228.079 201.408 227.922 202.032 C 227.566 203.450,224.696 215.962,224.696 216.095 C 224.696 216.627,218.796 218.759,214.931 219.625 C 211.400 220.416,202.959 220.492,199.846 219.761 C 189.445 217.318,186.220 208.901,190.295 194.838 C 193.700 183.089,200.778 176.590,212.126 174.794 C 214.325 174.445,222.463 174.692,224.568 175.171 M311.826 174.923 C 315.809 175.524,320.706 177.150,321.268 178.059 C 321.358 178.204,320.913 180.536,320.280 183.243 C 319.648 185.949,319.130 188.207,319.130 188.260 C 319.130 188.313,316.539 188.356,313.372 188.356 L 307.614 188.356 307.614 187.699 C 307.614 186.151,306.081 185.329,303.824 185.667 C 302.219 185.908,302.014 186.018,301.569 186.879 C 300.693 188.574,301.299 189.074,306.646 191.064 C 316.779 194.834,319.258 198.969,316.530 207.550 C 313.398 217.398,302.273 222.144,287.396 219.977 C 282.761 219.302,277.415 217.827,277.415 217.223 C 277.415 216.964,279.312 208.609,279.742 206.974 L 279.994 206.014 286.254 206.014 L 292.514 206.014 292.514 207.126 C 292.514 209.639,297.799 210.275,298.884 207.893 C 299.710 206.081,299.000 205.372,294.672 203.684 C 285.782 200.218,283.166 197.572,283.185 192.067 C 283.230 179.347,294.886 172.370,311.826 174.923 M72.425 175.662 C 72.425 175.859,72.021 177.731,71.528 179.821 C 71.035 181.911,70.572 183.880,70.500 184.197 C 70.382 184.709,70.210 184.773,68.957 184.773 C 68.053 184.773,67.510 184.888,67.446 185.093 C 67.235 185.762,67.019 203.711,67.221 203.705 C 67.406 203.700,75.227 186.029,75.451 185.112 C 75.512 184.861,75.161 184.773,74.102 184.773 L 72.671 184.773 72.850 184.069 C 72.948 183.682,73.446 181.580,73.957 179.399 L 74.885 175.432 84.403 175.365 C 91.933 175.312,93.921 175.365,93.919 175.621 C 93.916 175.881,93.191 179.123,92.004 184.183 C 91.895 184.646,91.663 184.759,90.684 184.823 L 89.496 184.901 80.460 202.175 L 71.425 219.450 62.072 219.517 L 52.719 219.584 52.719 219.005 C 52.719 218.149,50.964 188.793,50.783 186.628 L 50.628 184.773 49.481 184.773 C 48.509 184.773,48.354 184.705,48.466 184.325 C 48.539 184.079,49.010 182.092,49.513 179.910 C 50.016 177.729,50.479 175.800,50.542 175.624 C 50.721 175.122,72.425 175.160,72.425 175.662 M130.769 176.008 C 130.758 177.565,132.085 208.010,132.208 209.021 C 132.339 210.094,132.355 210.109,133.349 210.109 C 134.100 210.109,134.357 210.213,134.357 210.516 C 134.357 210.907,133.076 216.640,132.547 218.618 L 132.290 219.578 121.167 219.578 C 111.803 219.578,110.045 219.521,110.045 219.219 C 110.045 219.022,110.448 217.151,110.941 215.061 C 111.435 212.971,111.897 211.001,111.970 210.685 C 112.090 210.162,112.251 210.109,113.725 210.109 L 115.348 210.109 115.509 208.765 C 115.598 208.026,115.672 207.047,115.673 206.590 L 115.675 205.758 111.874 205.758 L 108.074 205.758 107.244 207.614 C 106.788 208.634,106.356 209.613,106.283 209.789 C 106.185 210.026,106.595 210.109,107.869 210.109 C 109.136 210.109,109.557 210.193,109.470 210.429 C 109.405 210.605,108.903 212.735,108.355 215.163 L 107.358 219.577 97.539 219.578 C 88.314 219.578,87.727 219.551,87.835 219.130 C 87.899 218.884,88.395 216.753,88.938 214.395 L 89.925 210.109 91.092 210.105 L 92.258 210.102 101.065 192.703 L 109.872 175.304 120.323 175.304 L 130.774 175.304 130.769 176.008 M177.777 175.686 C 183.500 176.777,186.142 179.972,185.701 185.271 C 185.241 190.781,182.322 195.886,178.504 197.861 C 176.564 198.864,176.505 198.995,177.830 199.351 C 180.814 200.155,181.580 202.509,180.439 207.368 C 179.755 210.276,179.708 210.109,181.217 210.109 C 182.155 210.109,182.491 210.199,182.407 210.429 C 182.342 210.605,181.840 212.735,181.291 215.163 L 180.294 219.577 171.273 219.578 C 163.621 219.578,162.252 219.522,162.252 219.212 C 162.252 219.010,162.836 216.333,163.549 213.262 C 165.816 203.506,165.875 202.716,164.414 201.759 C 163.858 201.395,160.221 200.797,159.985 201.031 C 159.867 201.148,157.920 209.363,157.909 209.789 C 157.904 210.015,158.426 210.109,159.693 210.109 C 160.678 210.109,161.484 210.182,161.484 210.271 C 161.484 210.360,161.004 212.491,160.418 215.005 L 159.351 219.578 148.001 219.578 L 136.651 219.578 136.830 218.874 C 136.928 218.487,137.422 216.385,137.927 214.203 L 138.845 210.237 140.289 210.161 L 141.734 210.085 142.397 207.218 C 142.761 205.641,144.077 199.946,145.321 194.562 L 147.582 184.773 146.216 184.773 C 145.465 184.773,144.850 184.661,144.850 184.524 C 144.850 184.387,145.310 182.297,145.873 179.879 C 146.436 177.461,146.897 175.443,146.897 175.394 C 146.897 175.064,175.959 175.340,177.777 175.686 M271.017 175.544 C 271.017 176.347,272.310 205.335,272.441 207.486 L 272.602 210.109 273.756 210.109 C 274.572 210.109,274.876 210.203,274.793 210.429 C 274.728 210.605,274.226 212.735,273.678 215.163 L 272.681 219.577 261.484 219.578 C 255.326 219.578,250.288 219.511,250.288 219.430 C 250.288 219.348,250.749 217.284,251.312 214.843 C 251.875 212.402,252.335 210.339,252.335 210.257 C 252.335 210.175,253.141 210.109,254.127 210.109 L 255.918 210.109 255.918 207.933 L 255.918 205.758 252.134 205.758 L 248.350 205.758 247.438 207.869 L 246.526 209.981 248.176 210.057 C 249.729 210.129,249.818 210.166,249.695 210.697 C 249.623 211.007,249.129 213.132,248.597 215.419 L 247.629 219.578 237.821 219.578 L 228.013 219.578 228.192 218.874 C 228.291 218.487,228.784 216.385,229.289 214.203 L 230.207 210.237 231.390 210.160 L 232.573 210.083 241.366 192.697 L 250.160 175.311 260.589 175.307 C 266.907 175.305,271.017 175.398,271.017 175.544 M162.669 189.036 C 162.132 191.380,161.628 193.468,161.549 193.675 C 161.426 193.995,161.756 194.036,163.715 193.942 C 167.082 193.781,167.857 193.136,168.695 189.797 C 169.733 185.661,169.209 184.773,165.729 184.773 L 163.645 184.773 162.669 189.036 M115.636 188.484 C 115.433 188.796,110.813 199.355,110.813 199.507 C 110.813 199.567,111.897 199.616,113.223 199.616 L 115.634 199.616 115.797 198.017 C 115.999 196.040,115.865 188.132,115.636 188.484 M255.732 188.804 C 255.639 189.050,254.553 191.555,253.319 194.370 L 251.076 199.488 253.530 199.562 C 254.880 199.602,256.013 199.602,256.048 199.562 C 256.084 199.521,256.164 196.983,256.227 193.922 C 256.331 188.854,256.205 187.557,255.732 188.804 M263.596 225.104 C 263.596 225.187,262.991 226.336,262.252 227.657 L 260.909 230.059 148.769 230.065 L 36.629 230.070 38.084 227.514 L 39.539 224.957 151.567 224.955 C 213.183 224.953,263.596 225.020,263.596 225.104 M277.927 225.104 C 277.927 225.187,277.322 226.336,276.583 227.657 L 275.240 230.059 269.132 230.065 L 263.025 230.070 263.393 229.495 C 263.595 229.178,264.265 228.026,264.881 226.935 L 266.001 224.952 271.964 224.952 C 275.244 224.952,277.927 225.020,277.927 225.104 M290.711 225.144 C 290.704 225.250,290.093 226.372,289.353 227.639 L 288.008 229.942 283.109 230.012 L 278.209 230.081 279.668 227.519 L 281.126 224.957 285.925 224.955 C 288.564 224.953,290.717 225.038,290.711 225.144 M302.186 225.528 C 301.984 225.845,301.314 226.996,300.698 228.087 L 299.578 230.070 295.633 230.070 L 291.688 230.070 292.056 229.495 C 292.258 229.178,292.928 228.026,293.544 226.935 L 294.664 224.952 298.609 224.952 L 302.554 224.952 302.186 225.528 M310.928 225.144 C 310.921 225.250,310.311 226.372,309.571 227.639 L 308.227 229.942 306.257 230.017 C 304.138 230.098,304.108 230.083,304.639 229.230 C 304.833 228.918,305.472 227.828,306.058 226.807 L 307.124 224.952 309.032 224.952 C 310.082 224.952,310.935 225.038,310.928 225.144 M317.130 227.509 C 315.694 230.032,315.662 230.065,314.715 230.068 C 313.520 230.071,313.498 230.228,315.099 227.365 L 316.443 224.963 317.514 224.958 L 318.585 224.952 317.130 227.509 " stroke="none" fill="#040404" fill-rule="evenodd"></path><path id="path3" d="M360.969 170.633 L 375.298 170.702 360.969 185.095 L 346.641 199.488 361.036 185.158 C 368.954 177.276,375.432 170.740,375.432 170.634 C 375.432 170.528,368.954 170.469,361.036 170.503 L 346.641 170.565 360.969 170.633 M342.546 174.536 C 340.439 176.647,338.772 178.375,338.842 178.375 C 338.912 178.375,340.694 176.647,342.802 174.536 C 344.910 172.425,346.577 170.697,346.507 170.697 C 346.436 170.697,344.654 172.425,342.546 174.536 M213.756 174.713 C 214.002 174.777,214.405 174.777,214.651 174.713 C 214.898 174.648,214.696 174.596,214.203 174.596 C 213.711 174.596,213.509 174.648,213.756 174.713 M219.898 174.713 C 220.144 174.777,220.547 174.777,220.793 174.713 C 221.040 174.648,220.838 174.596,220.345 174.596 C 219.853 174.596,219.651 174.648,219.898 174.713 M301.922 174.717 C 302.241 174.778,302.701 174.776,302.946 174.712 C 303.191 174.648,302.930 174.598,302.367 174.601 C 301.804 174.604,301.604 174.656,301.922 174.717 M308.701 174.713 C 308.948 174.777,309.351 174.777,309.597 174.713 C 309.843 174.648,309.642 174.596,309.149 174.596 C 308.656 174.596,308.455 174.648,308.701 174.713 M130.578 176.072 C 130.578 176.564,130.630 176.766,130.695 176.520 C 130.759 176.273,130.759 175.870,130.695 175.624 C 130.630 175.377,130.578 175.579,130.578 176.072 M174.987 175.485 C 175.305 175.546,175.766 175.544,176.011 175.480 C 176.255 175.416,175.995 175.366,175.432 175.368 C 174.869 175.371,174.669 175.424,174.987 175.485 M271.097 179.782 C 271.098 180.627,271.146 180.942,271.203 180.482 C 271.260 180.022,271.259 179.331,271.200 178.946 C 271.142 178.562,271.095 178.938,271.097 179.782 M287.908 180.038 C 287.286 180.672,286.835 181.190,286.906 181.190 C 286.976 181.190,287.542 180.672,288.164 180.038 C 288.785 179.405,289.236 178.887,289.166 178.887 C 289.096 178.887,288.530 179.405,287.908 180.038 M130.853 181.318 C 130.855 182.163,130.903 182.477,130.960 182.017 C 131.017 181.557,131.015 180.866,130.957 180.482 C 130.899 180.097,130.852 180.473,130.853 181.318 M185.625 184.133 C 185.626 185.118,185.672 185.490,185.727 184.959 C 185.783 184.428,185.782 183.622,185.725 183.168 C 185.669 182.713,185.623 183.148,185.625 184.133 M48.369 184.569 C 48.369 184.681,48.880 184.773,49.505 184.773 C 50.595 184.773,50.645 184.806,50.743 185.605 C 50.845 186.433,50.845 186.433,50.823 185.541 C 50.800 184.666,50.771 184.642,49.584 184.505 C 48.916 184.428,48.369 184.457,48.369 184.569 M72.680 184.558 C 72.681 184.651,73.372 184.766,74.217 184.814 C 75.062 184.862,75.752 184.825,75.752 184.732 C 75.752 184.639,75.061 184.523,74.216 184.476 C 73.371 184.428,72.680 184.465,72.680 184.558 M271.352 185.669 C 271.354 186.513,271.402 186.828,271.459 186.368 C 271.516 185.908,271.514 185.217,271.456 184.832 C 271.398 184.448,271.351 184.824,271.352 185.669 M67.474 184.709 C 67.409 184.814,67.891 184.866,68.547 184.824 C 70.415 184.704,70.642 184.579,69.049 184.547 C 68.248 184.530,67.539 184.603,67.474 184.709 M89.476 184.719 C 89.408 184.831,89.775 184.882,90.293 184.833 C 91.876 184.683,92.062 184.578,90.802 184.547 C 90.142 184.530,89.545 184.608,89.476 184.719 M145.558 184.702 C 146.018 184.759,146.709 184.758,147.094 184.700 C 147.478 184.641,147.102 184.595,146.257 184.596 C 145.413 184.598,145.098 184.645,145.558 184.702 M164.491 184.702 C 164.949 184.759,165.697 184.759,166.155 184.702 C 166.612 184.645,166.238 184.599,165.323 184.599 C 164.408 184.599,164.034 184.645,164.491 184.702 M131.109 187.204 C 131.111 188.049,131.159 188.363,131.216 187.903 C 131.272 187.443,131.271 186.752,131.213 186.368 C 131.155 185.983,131.108 186.360,131.109 187.204 M217.334 187.332 C 217.334 187.825,217.387 188.026,217.451 187.780 C 217.515 187.534,217.515 187.131,217.451 186.884 C 217.387 186.638,217.334 186.839,217.334 187.332 M116.022 190.531 C 116.021 191.798,116.064 192.348,116.118 191.754 C 116.172 191.160,116.172 190.124,116.119 189.451 C 116.066 188.778,116.023 189.264,116.022 190.531 M50.997 189.891 C 50.997 190.525,51.047 190.784,51.108 190.467 C 51.169 190.150,51.169 189.632,51.108 189.315 C 51.047 188.999,50.997 189.258,50.997 189.891 M271.608 191.555 C 271.610 192.399,271.658 192.714,271.715 192.254 C 271.772 191.794,271.770 191.103,271.712 190.718 C 271.654 190.334,271.607 190.710,271.608 191.555 M67.146 193.090 C 67.147 194.639,67.189 195.239,67.240 194.424 C 67.291 193.610,67.290 192.343,67.239 191.609 C 67.187 190.876,67.146 191.542,67.146 193.090 M256.267 192.834 C 256.268 194.242,256.311 194.785,256.363 194.041 C 256.415 193.298,256.414 192.146,256.362 191.482 C 256.309 190.818,256.267 191.427,256.267 192.834 M283.129 192.067 C 283.131 193.052,283.177 193.424,283.232 192.893 C 283.288 192.362,283.287 191.555,283.230 191.101 C 283.174 190.647,283.128 191.081,283.129 192.067 M131.363 192.962 C 131.363 193.736,131.411 194.053,131.469 193.666 C 131.528 193.279,131.528 192.646,131.469 192.258 C 131.411 191.871,131.363 192.188,131.363 192.962 M51.253 194.242 C 51.253 194.875,51.303 195.134,51.364 194.818 C 51.425 194.501,51.425 193.983,51.364 193.666 C 51.303 193.349,51.253 193.608,51.253 194.242 M180.934 195.905 C 180.312 196.539,179.861 197.057,179.932 197.057 C 180.002 197.057,180.568 196.539,181.190 195.905 C 181.812 195.272,182.263 194.754,182.192 194.754 C 182.122 194.754,181.556 195.272,180.934 195.905 M271.864 197.441 C 271.866 198.285,271.914 198.600,271.971 198.140 C 272.027 197.680,272.026 196.989,271.968 196.605 C 271.909 196.220,271.863 196.596,271.864 197.441 M51.509 198.337 C 51.509 198.970,51.559 199.229,51.620 198.912 C 51.681 198.596,51.681 198.077,51.620 197.761 C 51.559 197.444,51.509 197.703,51.509 198.337 M131.621 198.720 C 131.623 199.565,131.670 199.880,131.727 199.420 C 131.784 198.960,131.783 198.269,131.725 197.884 C 131.666 197.500,131.620 197.876,131.621 198.720 M115.734 198.848 C 115.734 199.341,115.787 199.543,115.851 199.296 C 115.916 199.050,115.916 198.647,115.851 198.401 C 115.787 198.154,115.734 198.356,115.734 198.848 M326.761 199.552 C 330.466 199.592,336.455 199.592,340.069 199.552 C 343.684 199.512,340.653 199.479,333.333 199.479 C 326.014 199.479,323.057 199.512,326.761 199.552 M161.036 201.072 C 161.283 201.136,161.686 201.136,161.932 201.072 C 162.179 201.008,161.977 200.955,161.484 200.955 C 160.992 200.955,160.790 201.008,161.036 201.072 M317.415 202.175 C 317.415 202.949,317.463 203.266,317.522 202.879 C 317.580 202.492,317.580 201.859,317.522 201.472 C 317.463 201.084,317.415 201.401,317.415 202.175 M66.871 202.431 C 66.871 203.205,66.919 203.522,66.978 203.135 C 67.037 202.748,67.037 202.115,66.978 201.727 C 66.919 201.340,66.871 201.657,66.871 202.431 M51.765 202.687 C 51.765 203.321,51.815 203.580,51.876 203.263 C 51.937 202.946,51.937 202.428,51.876 202.111 C 51.815 201.795,51.765 202.054,51.765 202.687 M272.120 203.071 C 272.122 203.916,272.169 204.230,272.226 203.770 C 272.283 203.310,272.282 202.619,272.224 202.235 C 272.165 201.850,272.119 202.226,272.120 203.071 M131.877 204.607 C 131.879 205.451,131.926 205.766,131.983 205.306 C 132.040 204.846,132.039 204.155,131.981 203.770 C 131.922 203.386,131.876 203.762,131.877 204.607 M52.021 206.782 C 52.021 207.415,52.071 207.674,52.132 207.358 C 52.193 207.041,52.193 206.523,52.132 206.206 C 52.071 205.889,52.021 206.148,52.021 206.782 M205.316 207.550 C 205.316 208.183,205.366 208.442,205.427 208.125 C 205.488 207.809,205.488 207.290,205.427 206.974 C 205.366 206.657,205.316 206.916,205.316 207.550 M272.400 208.829 L 272.425 210.237 273.640 210.376 C 274.309 210.453,274.856 210.425,274.856 210.312 C 274.856 210.200,274.344 210.109,273.718 210.109 L 272.580 210.109 272.478 208.765 L 272.376 207.422 272.400 208.829 M115.457 209.137 L 115.419 210.085 113.692 210.175 L 111.964 210.264 113.700 210.315 C 115.597 210.369,115.800 210.220,115.604 208.915 C 115.512 208.297,115.490 208.330,115.457 209.137 M132.089 209.661 C 132.055 210.341,132.095 210.363,133.269 210.320 L 134.485 210.275 133.413 210.178 C 132.553 210.100,132.320 209.970,132.233 209.519 C 132.142 209.054,132.117 209.079,132.089 209.661 M157.666 209.917 C 157.648 210.302,157.893 210.365,159.416 210.365 C 160.592 210.365,161.229 210.472,161.315 210.685 C 161.392 210.876,161.452 210.824,161.464 210.557 C 161.482 210.171,161.237 210.109,159.714 210.109 C 158.538 210.109,157.901 210.002,157.815 209.789 C 157.738 209.598,157.678 209.649,157.666 209.917 M179.675 209.893 C 179.659 210.229,179.947 210.336,181.062 210.405 C 181.837 210.453,182.470 210.406,182.470 210.301 C 182.470 210.195,181.903 210.109,181.211 210.109 C 180.444 210.109,179.903 209.984,179.824 209.789 C 179.743 209.588,179.687 209.627,179.675 209.893 M52.277 211.132 C 52.277 211.766,52.327 212.025,52.388 211.708 C 52.449 211.392,52.449 210.873,52.388 210.557 C 52.327 210.240,52.277 210.499,52.277 211.132 M89.827 210.313 C 89.827 210.426,90.259 210.477,90.787 210.427 C 92.433 210.270,92.567 210.169,91.171 210.138 C 90.432 210.122,89.827 210.201,89.827 210.313 M106.334 210.262 C 107.516 210.454,109.533 210.478,109.533 210.301 C 109.533 210.195,108.698 210.124,107.678 210.144 C 106.657 210.163,106.052 210.216,106.334 210.262 M138.878 210.279 C 138.784 210.373,138.709 210.575,138.712 210.727 C 138.714 210.903,138.786 210.893,138.909 210.700 C 139.016 210.533,139.734 210.352,140.505 210.299 L 141.907 210.203 140.478 210.156 C 139.692 210.130,138.972 210.186,138.878 210.279 M208.000 210.290 C 208.319 210.351,208.779 210.349,209.024 210.285 C 209.269 210.221,209.008 210.170,208.445 210.173 C 207.882 210.176,207.682 210.229,208.000 210.290 M230.241 210.279 C 230.147 210.373,230.072 210.575,230.074 210.727 C 230.077 210.905,230.147 210.896,230.270 210.702 C 230.376 210.536,230.979 210.355,231.610 210.299 L 232.758 210.198 231.585 210.153 C 230.939 210.129,230.335 210.186,230.241 210.279 M247.851 210.300 C 248.692 210.351,249.467 210.531,249.574 210.699 C 249.705 210.905,249.770 210.859,249.772 210.557 C 249.776 210.169,249.543 210.115,248.049 210.157 L 246.321 210.206 247.851 210.300 M253.167 210.295 C 253.695 210.350,254.559 210.350,255.086 210.295 C 255.614 210.240,255.182 210.195,254.127 210.195 C 253.071 210.195,252.639 210.240,253.167 210.295 M52.533 215.483 C 52.533 216.116,52.583 216.376,52.644 216.059 C 52.705 215.742,52.705 215.224,52.644 214.907 C 52.583 214.591,52.533 214.850,52.533 215.483 M191.939 215.611 C 192.416 216.104,192.864 216.507,192.935 216.507 C 193.005 216.507,192.672 216.104,192.194 215.611 C 191.717 215.118,191.269 214.715,191.198 214.715 C 191.128 214.715,191.461 215.118,191.939 215.611 M289.638 220.271 C 289.957 220.332,290.417 220.329,290.662 220.265 C 290.907 220.201,290.646 220.151,290.083 220.154 C 289.520 220.157,289.320 220.209,289.638 220.271 " stroke="none" fill="#5c1515" fill-rule="evenodd"></path><path id="path4" d="M187.969 141.971 L 202.297 142.039 188.481 155.920 L 174.664 169.802 188.548 155.983 C 196.184 148.383,202.431 142.078,202.431 141.971 C 202.431 141.865,195.953 141.806,188.036 141.840 L 173.640 141.902 187.969 141.971 M245.550 141.971 L 259.879 142.039 246.062 155.920 L 232.246 169.802 246.129 155.983 C 253.765 148.383,260.013 142.078,260.013 141.971 C 260.013 141.865,253.535 141.806,245.617 141.840 L 231.222 141.902 245.550 141.971 M303.132 141.971 L 317.460 142.039 303.644 155.920 L 289.827 169.802 303.711 155.983 C 311.347 148.383,317.594 142.078,317.594 141.971 C 317.594 141.865,311.116 141.806,303.199 141.840 L 288.804 141.902 303.132 141.971 M345.352 143.122 L 344.082 144.466 345.370 143.250 L 346.659 142.035 360.852 142.035 L 375.046 142.035 360.716 156.430 L 346.385 170.825 360.909 156.367 C 368.896 148.415,375.432 141.879,375.432 141.843 C 375.432 141.808,368.950 141.779,361.027 141.779 L 346.622 141.779 345.352 143.122 " stroke="none" fill="#7c7c7c" fill-rule="evenodd"></path></g></svg>